<?xml version="1.0" encoding="utf-8"?>
<!-- Generator: Adobe Illustrator 27.9.0, SVG Export Plug-In . SVG Version: 6.00 Build 0)  -->
<svg version="1.1" id="Слой_1" xmlns="http://www.w3.org/2000/svg" xmlns:xlink="http://www.w3.org/1999/xlink" x="0px" y="0px"
	 viewBox="0 0 100 100" style="enable-background:new 0 0 100 100;" xml:space="preserve">
<style type="text/css">
	.st0{fill:#FFFFFF;}
</style>
<g>
	<path class="st0" d="M9.7,80.1c-5.4-3.9-8.4-9.7-8.9-17.3h23.3c0.3,4,2.1,6,5.3,6c1.2,0,2.2-0.3,3-0.8c0.8-0.6,1.2-1.4,1.2-2.6
		c0-1.6-0.9-3-2.7-4c-1.8-1-4.6-2.2-8.3-3.5c-4.5-1.6-8.2-3.1-11.1-4.6c-2.9-1.5-5.5-3.7-7.6-6.6C2,43.7,0.9,40,1,35.4
		c0-4.6,1.2-8.4,3.5-11.6c2.3-3.2,5.5-5.6,9.6-7.3c4.1-1.6,8.6-2.5,13.7-2.5c8.6,0,15.4,2,20.4,5.9s7.7,9.5,8,16.7H32.6
		c-0.1-2-0.6-3.4-1.5-4.3c-0.9-0.9-2-1.3-3.4-1.3c-0.9,0-1.7,0.3-2.3,0.9c-0.6,0.6-0.9,1.5-0.9,2.6c0,1.6,0.9,2.9,2.6,3.9
		c1.7,1,4.5,2.3,8.4,3.7c4.4,1.6,8.1,3.2,10.9,4.7c2.9,1.5,5.4,3.6,7.5,6.3c2.1,2.7,3.2,6.1,3.2,10.2c0,4.3-1.1,8.1-3.2,11.5
		c-2.1,3.4-5.2,6.1-9.2,8c-4,1.9-8.8,2.9-14.3,2.9C22,86,15.1,84,9.7,80.1z"/>
	<path class="st0" d="M68.6,83.4c-3.1-1.6-5.5-3.9-7.2-6.8c-1.7-3-2.6-6.4-2.6-10.4c0-4,0.9-7.5,2.6-10.4c1.7-3,4.2-5.2,7.2-6.8
		c3.1-1.6,6.5-2.4,10.4-2.4c3.8,0,7.3,0.8,10.4,2.4c3.1,1.6,5.5,3.9,7.2,6.8c1.7,3,2.6,6.4,2.6,10.4c0,4-0.9,7.5-2.6,10.4
		c-1.7,3-4.2,5.2-7.2,6.8c-3.1,1.6-6.5,2.4-10.4,2.4C75.1,85.7,71.7,84.9,68.6,83.4z M82.5,71c1-1.1,1.4-2.7,1.4-4.9
		c0-2.2-0.5-3.8-1.4-4.9c-0.9-1.1-2.1-1.7-3.5-1.7c-1.4,0-2.6,0.6-3.5,1.7c-1,1.1-1.4,2.7-1.4,4.9c0,2.2,0.5,3.8,1.4,4.9
		c0.9,1.1,2.1,1.7,3.6,1.7C80.4,72.7,81.5,72.2,82.5,71z"/>
</g>
</svg>
